<svg width="290" height="290" viewBox="0 0 290 290" fill="none" xmlns="http://www.w3.org/2000/svg">
<g clip-path="url(#clip0)">
<path d="M242.998 42.1558C247.055 40.3493 249.979 39.0496 252.27 38.2601C254.575 37.4662 255.939 37.302 256.945 37.4889C259.37 37.9396 261.452 39.4844 262.587 41.6752C263.057 42.5834 263.295 43.9367 263.204 46.3722C263.112 48.7942 262.716 51.9689 262.163 56.3761L253.509 125.392C252.972 129.669 252.585 132.746 252.09 135.049C251.592 137.361 251.043 138.587 250.377 139.348C248.777 141.177 246.431 142.18 244.002 142.072C242.992 142.028 241.726 141.577 239.712 140.338C237.706 139.105 235.214 137.258 231.752 134.69L176.864 93.9645C173.402 91.3959 170.912 89.5464 169.15 87.9839C167.38 86.4151 166.582 85.3343 166.246 84.3804C165.439 82.0873 165.719 79.5517 167.006 77.4894C167.541 76.6315 168.555 75.7503 170.624 74.6043C172.684 73.463 175.517 72.1999 179.455 70.4466L242.998 42.1558Z" fill="#D2B53A" stroke="black" stroke-width="4"/>
<path d="M226.993 66.1536C231.051 64.3467 233.974 63.0469 236.266 62.2573C238.57 61.4632 239.934 61.2989 240.94 61.4857C243.366 61.9363 245.448 63.4809 246.583 65.6716C247.053 66.5797 247.291 67.933 247.2 70.3686C247.109 72.7905 246.713 75.9653 246.16 80.3725L237.51 149.389C236.974 153.666 236.587 156.743 236.092 159.046C235.595 161.358 235.046 162.584 234.38 163.345C232.779 165.175 230.434 166.177 228.005 166.07C226.995 166.025 225.729 165.575 223.714 164.336C221.708 163.103 219.216 161.256 215.754 158.688L160.863 117.967C157.401 115.398 154.911 113.549 153.149 111.987C151.379 110.418 150.581 109.337 150.245 108.384C149.438 106.091 149.717 103.555 151.004 101.492C151.539 100.634 152.554 99.7533 154.622 98.6072C156.682 97.4657 159.514 96.2024 163.452 94.4488L226.993 66.1536Z" fill="#FFEF98" stroke="black" stroke-width="4"/>
<path d="M28.0664 56.3725C27.514 51.9653 27.1179 48.7905 27.0268 46.3685C26.9352 43.933 27.1736 42.5797 27.644 41.6716C28.7788 39.4809 30.8609 37.9363 33.2865 37.4857C34.2921 37.2989 35.6564 37.4632 37.9606 38.2573C40.2521 39.0469 43.1755 40.3468 47.2331 42.1536L110.774 70.4488C114.712 72.2024 117.545 73.4657 119.605 74.6072C121.673 75.7533 122.687 76.6345 123.223 77.4925C124.509 79.5549 124.789 82.0905 123.981 84.3835C123.646 85.3374 122.847 86.4182 121.078 87.9869C119.315 89.5492 116.826 91.3985 113.364 93.9669L58.4724 134.688C55.0103 137.256 52.5184 139.103 50.5121 140.336C48.4976 141.575 47.2317 142.025 46.2214 142.07C43.7929 142.177 41.4473 141.175 39.8467 139.345C39.1808 138.584 38.6317 137.358 38.1347 135.046C37.6398 132.743 37.2523 129.666 36.7162 125.389L28.0664 56.3725Z" fill="#D2B53A" stroke="black" stroke-width="4"/>
<path d="M45.0664 80.3725C44.514 75.9653 44.1179 72.7905 44.0268 70.3685C43.9352 67.933 44.1736 66.5797 44.644 65.6716C45.7788 63.4808 47.8609 61.9363 50.2865 61.4857C51.2921 61.2989 52.6564 61.4632 54.9606 62.2573C57.2521 63.0469 60.1755 64.3467 64.2331 66.1536L127.774 94.4488C131.712 96.2024 134.545 97.4657 136.605 98.6072C138.673 99.7533 139.687 100.634 140.223 101.492C141.509 103.555 141.789 106.091 140.981 108.383C140.646 109.337 139.847 110.418 138.078 111.987C136.315 113.549 133.826 115.398 130.364 117.967L75.4724 158.688C72.0103 161.256 69.5184 163.103 67.5121 164.336C65.4976 165.575 64.2317 166.025 63.2214 166.07C60.7929 166.177 58.4473 165.175 56.8467 163.345C56.1808 162.584 55.6317 161.358 55.1347 159.046C54.6398 156.743 54.2523 153.666 53.7162 149.389L45.0664 80.3725Z" fill="#FFEF98" stroke="black" stroke-width="4"/>
<path d="M253 161.5C253 211.179 205.2 252 145.5 252C85.7998 252 38 211.179 38 161.5C38 111.821 85.7998 71 145.5 71C205.2 71 253 111.821 253 161.5Z" fill="#D2B53A" stroke="black" stroke-width="4"/>
<ellipse cx="146" cy="179" rx="50" ry="40" fill="#EEDA71"/>
<ellipse cx="86.5" cy="157.5" rx="22.5" ry="21.5" fill="black"/>
<ellipse cx="86.5" cy="165" rx="9.5" ry="7" fill="white"/>
<ellipse cx="77" cy="153" rx="7" ry="5" fill="white"/>
<ellipse cx="94" cy="147" rx="5" ry="4" fill="#B0B0B0"/>
<ellipse cx="205.5" cy="157.5" rx="22.5" ry="21.5" fill="black"/>
<ellipse cx="214" cy="147" rx="5" ry="4" fill="#B0B0B0"/>
<ellipse cx="208.5" cy="165" rx="9.5" ry="7" fill="white"/>
<ellipse cx="196" cy="153" rx="7" ry="5" fill="white"/>
<path d="M147 180C141.333 187 127 198.001 115 186" stroke="black" stroke-width="3"/>
<path d="M147 180C152.667 187 167 198 179 186" stroke="black" stroke-width="3"/>
<ellipse cx="147" cy="172" rx="14" ry="10" fill="#936F48"/>
<path fill-rule="evenodd" clip-rule="evenodd" d="M145.838 162.034L151.208 167.558L134.075 175.85C133.383 174.665 133 173.364 133 172C133 166.757 138.65 162.456 145.838 162.034Z" fill="white"/>
<path d="M174 174C194.667 174 241.6 180 264 204" stroke="white"/>
<path d="M121 181C96 185 42.2 199.8 27 227" stroke="white"/>
<path d="M169 182C194.333 188 246 206 250 230" stroke="white"/>
<path d="M129 184C106.667 189.333 61.4 207.2 59 236" stroke="white"/>
<path d="M164 183C187.333 190.667 234.6 213.4 237 243" stroke="white"/>
<path d="M121 174C96 174.667 38.8 180 10 196" stroke="white"/>
</g>
<defs>
<clipPath id="clip0">
<rect width="290" height="290" fill="white"/>
</clipPath>
</defs>
</svg>
